<?xml version="1.0" standalone="no"?>
<!DOCTYPE svg PUBLIC "-//W3C//DTD SVG 20010904//EN"
 "http://www.w3.org/TR/2001/REC-SVG-20010904/DTD/svg10.dtd">
<svg version="1.0" xmlns="http://www.w3.org/2000/svg"
 width="320.000000pt" height="320.000000pt" viewBox="0 0 320.000000 320.000000"
 preserveAspectRatio="xMidYMid meet">

<g transform="translate(0.000000,320.000000) scale(0.100000,-0.100000)"
fill="#000000" stroke="none">
<path d="M0 1600 l0 -1600 1600 0 1600 0 0 1600 0 1601 -712 -3 c-793 -4 -797
-5 -1008 -74 -180 -60 -297 -139 -389 -263 -69 -92 -157 -172 -228 -208 -48
-23 -71 -28 -135 -28 -83 0 -110 12 -152 69 -30 40 -28 178 2 256 12 30 22 56
22 58 0 2 -12 -5 -27 -16 -88 -62 -220 -107 -279 -96 -70 13 -121 94 -105 166
9 38 37 95 59 121 14 16 8 17 -116 17 l-132 0 0 -1600z m372 204 l135 -7 12
-45 c37 -140 232 -176 295 -53 8 15 17 43 21 64 l7 37 57 0 c31 0 120 -3 199
-7 123 -5 142 -8 142 -23 0 -30 -48 -158 -86 -231 -133 -253 -433 -348 -701
-223 -85 40 -190 149 -236 244 -37 77 -67 178 -67 224 0 30 -1 30 222 20z
m2672 -21 c-38 -176 -81 -267 -164 -357 -66 -70 -144 -117 -236 -141 -70 -19
-224 -21 -285 -5 -134 36 -256 139 -326 275 -38 75 -83 199 -83 231 0 12 36
14 200 14 l200 0 6 -27 c12 -55 27 -84 61 -113 29 -26 42 -30 91 -30 90 0 146
46 173 143 l10 37 180 0 179 0 -6 -27z m-1324 -237 c30 -15 68 -39 84 -54 31
-29 86 -110 86 -126 0 -8 -100 -10 -317 -8 -175 2 -319 5 -321 6 -7 8 26 72
53 104 64 76 160 113 280 109 63 -3 91 -9 135 -31z m80 -231 c0 -16 -32 -64
-62 -91 -106 -100 -223 -96 -338 12 -95 89 -104 84 165 84 129 0 235 -2 235
-5z m-42 -217 c117 -241 100 -458 -37 -458 -28 0 -43 9 -77 45 -24 24 -46 40
-49 35 -18 -30 -124 5 -147 48 -22 43 -15 165 17 262 15 47 28 86 30 88 1 1
22 -2 46 -7 53 -12 112 -1 148 28 14 11 29 20 32 20 3 1 20 -27 37 -61z"/>
</g>
</svg>
