<?xml version="1.0" standalone="no"?>
<!DOCTYPE svg PUBLIC "-//W3C//DTD SVG 20010904//EN"
 "http://www.w3.org/TR/2001/REC-SVG-20010904/DTD/svg10.dtd">
<svg version="1.0" xmlns="http://www.w3.org/2000/svg"
 width="2752.000000pt" height="729.000000pt" viewBox="0 0 2752.000000 729.000000"
 preserveAspectRatio="xMidYMid meet">

<g transform="translate(0.000000,729.000000) scale(0.100000,-0.100000)"
fill="#000000" stroke="none">
<path d="M440 7271 c0 -11 5 -23 12 -27 14 -9 261 -41 408 -54 52 -5 111 -11
130 -14 72 -12 231 -26 288 -26 33 0 72 -4 88 -9 31 -10 94 -17 264 -26 58 -3
121 -10 140 -15 47 -13 108 -18 275 -26 100 -4 147 -11 165 -22 19 -12 65 -16
200 -20 137 -3 179 -8 192 -19 14 -12 57 -17 200 -20 110 -3 199 -10 223 -18
22 -7 117 -16 210 -20 104 -5 180 -12 195 -20 20 -10 888 -14 4365 -20 3780
-7 4343 -10 4362 -22 20 -13 607 -16 4575 -20 3628 -4 4556 -8 4568 -18 12
-10 362 -13 1666 -16 1522 -4 1653 -3 1670 12 14 13 45 18 124 21 73 2 115 9
139 21 19 9 55 17 80 17 57 0 172 18 186 29 5 5 64 11 130 15 70 4 128 12 140
20 11 7 65 16 120 19 120 8 134 10 160 24 11 6 65 13 120 16 65 3 111 10 130
21 17 9 49 16 73 16 52 0 179 19 207 30 11 5 61 11 110 15 50 3 108 10 130 16
22 6 81 15 130 19 85 8 216 33 260 50 11 5 73 18 138 31 98 19 117 26 117 41
0 17 -472 18 -13345 18 -13203 0 -13345 0 -13345 -19z"/>
<path d="M1145 6626 c-17 -7 -35 -19 -41 -27 -22 -26 -1104 -2947 -1098 -2962
12 -33 64 -37 438 -37 377 0 429 4 460 38 9 10 115 304 236 653 121 349 225
646 231 662 l11 27 289 0 c158 0 299 -4 313 -10 55 -21 58 -7 -163 -681 -114
-348 -206 -641 -204 -650 9 -35 58 -39 437 -39 380 0 429 4 460 39 19 21 438
1384 457 1487 31 164 -57 331 -214 405 -70 32 -179 59 -245 59 l-44 0 174 179
c95 99 309 320 476 491 249 257 302 317 302 340 0 20 -6 29 -22 34 -40 10
-720 7 -760 -4 -30 -9 -120 -95 -482 -462 -245 -248 -470 -473 -499 -499 l-53
-47 168 485 c93 267 167 492 164 500 -11 29 -63 33 -409 33 -267 -1 -359 -4
-382 -14z"/>
<path d="M3653 6629 c-18 -5 -39 -20 -47 -32 -7 -12 -210 -683 -451 -1490
-414 -1387 -438 -1469 -421 -1485 15 -15 53 -17 394 -20 207 -2 396 0 420 3
83 12 80 5 211 485 65 239 124 455 131 479 l12 44 113 -264 c143 -334 299
-683 318 -713 9 -13 30 -26 48 -30 42 -8 797 -6 829 3 14 4 29 18 34 33 8 23
-5 58 -89 240 -54 117 -154 337 -221 488 l-122 275 85 7 c124 11 205 33 318
88 114 55 199 120 266 204 92 113 95 125 274 898 91 394 165 730 165 747 0 25
-6 34 -26 41 -34 13 -2197 12 -2241 -1z m1277 -616 c0 -37 -173 -689 -186
-705 -33 -35 -63 -38 -365 -36 l-296 3 94 340 c51 187 98 357 104 378 l10 37
319 0 c293 0 320 -1 320 -17z"/>
<path d="M6143 6625 c-18 -8 -37 -24 -43 -37 -5 -13 -34 -133 -64 -268 -50
-223 -54 -247 -40 -267 14 -22 19 -23 189 -23 96 0 175 -3 175 -7 0 -5 -86
-412 -192 -905 l-192 -898 -151 0 c-169 -1 -229 -9 -256 -36 -20 -21 -132
-489 -127 -534 6 -51 -8 -50 875 -47 l823 2 24 25 c22 22 30 55 70 280 51 293
51 292 -30 304 -26 3 -110 6 -186 6 l-140 0 5 23 c3 12 80 415 171 895 91 480
168 877 171 882 4 6 77 10 175 10 230 0 207 -25 265 301 25 141 43 263 40 272
-14 36 -41 37 -793 37 -612 -1 -743 -3 -769 -15z"/>
<path d="M7943 6629 c-18 -5 -37 -17 -42 -27 -5 -9 -123 -678 -262 -1485 -191
-1106 -251 -1472 -243 -1485 6 -9 22 -20 35 -23 13 -4 196 -7 407 -8 413 -1
441 2 462 51 7 17 150 961 150 991 0 3 235 7 523 10 588 5 589 5 752 81 110
52 190 116 250 200 88 124 86 113 170 921 42 400 73 736 70 746 -4 11 -18 24
-32 30 -32 12 -2197 10 -2240 -2z m1357 -621 c-1 -13 -20 -174 -44 -358 -43
-325 -45 -335 -71 -357 -26 -23 -28 -23 -335 -23 -288 0 -308 1 -304 18 2 9
26 175 54 367 28 193 53 356 55 363 3 9 77 12 325 12 l320 0 0 -22z"/>
<path d="M10435 6631 c-42 -18 -47 -36 -73 -301 -25 -252 -25 -260 -7 -280 17
-19 29 -20 342 -20 l323 0 -1 -27 c0 -16 -42 -548 -93 -1183 -51 -635 -89
-1164 -86 -1175 14 -40 57 -44 445 -44 367 -1 430 4 455 34 8 9 32 383 76
1187 35 645 64 1181 64 1191 0 16 22 17 324 17 295 0 326 2 346 18 21 17 22
28 32 281 10 262 9 264 -11 285 l-22 21 -1047 2 c-576 1 -1056 -2 -1067 -6z"/>
<path d="M13272 6629 c-241 -35 -440 -202 -497 -418 -11 -42 -23 -349 -51
-1310 l-37 -1255 22 -17 c12 -10 41 -21 64 -24 23 -3 463 -5 977 -3 924 4 936
4 1012 25 241 68 393 215 428 414 9 52 2 299 -39 1308 -48 1216 -50 1245 -71
1265 -21 21 -21 21 -883 22 -474 1 -890 -2 -925 -7z m992 -641 c3 -24 10 -421
16 -883 l11 -840 -26 -22 c-26 -23 -29 -23 -342 -23 l-315 0 4 873 c3 479 8
879 12 889 4 9 22 23 39 32 27 13 78 16 314 16 l282 0 5 -42z"/>
<path d="M15779 6629 c-243 -35 -426 -195 -471 -412 -10 -46 -3 -264 40 -1244
29 -653 55 -1221 58 -1261 10 -117 -70 -106 839 -112 l780 -5 12 -130 c6 -71
12 -133 12 -137 2 -16 290 21 458 58 215 48 423 124 437 159 2 7 -42 421 -98
921 l-103 908 -27 23 -27 23 -543 0 c-517 0 -545 -1 -567 -19 l-23 -19 18
-243 c19 -259 26 -303 56 -319 10 -6 78 -10 150 -10 95 0 132 -3 135 -12 3 -7
14 -119 25 -248 11 -129 23 -256 26 -282 l6 -48 -341 0 -340 0 -5 33 c-10 61
-117 1667 -114 1704 3 32 9 41 38 55 31 16 69 18 316 18 l281 0 6 -47 c4 -27
9 -90 13 -140 l7 -93 50 0 c208 0 720 136 779 207 10 12 6 72 -21 317 -34 315
-40 338 -87 356 -31 12 -1694 11 -1775 -1z"/>
<path d="M17818 6629 c-14 -6 -29 -17 -32 -25 -3 -8 73 -677 169 -1487 163
-1375 176 -1473 195 -1489 12 -10 36 -20 53 -23 18 -3 206 -5 418 -3 423 3
419 3 419 62 0 18 -29 236 -65 486 -36 250 -65 455 -65 457 0 2 110 -126 244
-284 351 -415 577 -673 609 -697 28 -20 42 -21 427 -24 219 -2 414 1 432 6 67
17 56 34 -267 403 -386 442 -545 626 -545 633 0 3 20 6 44 6 76 0 198 29 273
64 99 47 164 111 211 205 61 124 59 142 -91 941 -69 371 -131 692 -137 713
-20 71 47 67 -1172 66 -684 0 -1103 -4 -1120 -10z m1537 -611 c2 -7 29 -168
60 -357 l55 -345 -22 -23 -21 -23 -306 0 -306 0 -53 373 c-29 204 -52 375 -52
380 0 4 144 7 320 7 248 0 322 -3 325 -12z"/>
<path d="M20785 6630 c-245 -33 -414 -208 -415 -430 0 -54 461 -2489 481
-2541 21 -53 28 -54 469 -54 440 0 440 0 440 53 0 21 -190 917 -206 975 -5 16
15 17 333 17 l338 0 114 -487 c63 -269 120 -500 128 -515 8 -18 26 -31 51 -37
40 -12 757 -16 811 -5 17 4 36 14 41 24 7 13 -96 423 -370 1476 -209 803 -384
1469 -390 1482 -23 53 -12 52 -922 51 -464 -1 -870 -5 -903 -9z m1120 -622
c27 -113 158 -671 164 -700 l9 -38 -332 0 -331 0 -73 343 c-40 188 -73 349
-73 358 1 17 26 43 51 52 8 3 142 6 297 6 l283 1 5 -22z"/>
<path d="M22831 6631 c-13 -3 -29 -13 -34 -22 -7 -11 96 -414 378 -1475 213
-802 392 -1470 399 -1484 21 -45 53 -49 462 -49 417 -1 444 2 444 48 0 22
-303 1084 -326 1146 -6 13 45 15 472 15 301 0 493 4 517 11 31 8 37 14 37 37
0 41 -152 510 -172 532 -34 37 -80 40 -565 40 l-471 0 -11 33 c-19 60 -161
555 -161 561 0 3 220 6 489 6 436 0 491 2 506 16 10 10 13 24 9 38 -3 11 -42
132 -85 269 -69 212 -84 250 -107 265 -24 16 -87 17 -892 19 -476 0 -876 -2
-889 -6z"/>
<path d="M24843 6630 c-16 -7 -23 -18 -23 -38 0 -15 36 -139 80 -274 65 -201
85 -251 106 -267 25 -19 40 -21 201 -21 l174 0 14 -32 c17 -41 595 -1759 595
-1769 0 -4 -78 -9 -172 -11 -178 -5 -202 -9 -212 -35 -4 -9 31 -130 76 -270
87 -269 100 -295 159 -307 51 -10 1615 -7 1642 3 13 5 27 17 31 26 5 14 -137
416 -181 513 -27 57 -57 65 -257 71 l-178 6 -324 895 c-178 492 -324 898 -324
903 0 4 74 7 164 7 90 0 171 3 180 6 9 3 16 17 16 31 0 25 -156 456 -186 514
-31 60 -13 59 -821 58 -415 0 -748 -4 -760 -9z"/>
<path d="M11938 3290 c-117 -3 -171 -9 -180 -18 -9 -9 -38 -341 -104 -1190
-49 -647 -88 -1185 -86 -1194 2 -10 18 -21 36 -26 17 -5 168 -6 335 -4 303 5
305 5 328 28 17 17 23 34 23 66 0 64 79 1723 86 1796 l6 62 160 0 161 0 -6
-147 c-3 -82 -18 -511 -33 -956 -27 -767 -27 -808 -11 -825 16 -16 46 -17 345
-14 316 3 328 4 345 24 15 18 17 51 17 352 0 183 3 610 7 949 l6 617 143 0
c122 0 145 -3 164 -18 l23 -18 7 -939 c7 -849 9 -940 24 -950 11 -8 110 -14
314 -19 306 -8 373 -3 386 29 9 24 -62 1974 -75 2040 -23 124 -110 241 -225
302 -123 65 -83 63 -1104 61 -509 -1 -1000 -5 -1092 -8z"/>
<path d="M14817 3290 c-74 -10 -139 -34 -204 -77 -106 -70 -165 -178 -170
-313 -2 -47 14 -516 35 -1042 34 -871 39 -959 55 -975 16 -16 48 -18 347 -21
l329 -3 14 23 c13 20 12 66 -9 368 -12 190 -25 369 -27 399 l-4 54 260 -6
c143 -4 262 -9 264 -11 3 -2 20 -183 39 -403 27 -299 39 -402 50 -413 19 -20
142 -28 445 -29 203 -1 238 1 249 15 11 12 -11 220 -124 1194 -75 649 -139
1186 -142 1194 -3 8 -20 20 -37 25 -19 6 -260 12 -577 16 -300 3 -588 7 -640
9 -52 2 -121 1 -153 -4z m790 -502 c8 -10 31 -255 57 -582 1 -17 -11 -18 -254
-16 -140 0 -256 2 -257 4 -1 1 -9 105 -17 231 -9 127 -18 254 -21 282 -4 44
-2 56 15 73 19 19 33 20 244 20 167 0 226 -3 233 -12z"/>
<path d="M10055 3258 c-198 -5 -376 -14 -396 -19 -22 -5 -40 -18 -46 -32 -6
-13 -26 -115 -44 -226 -42 -251 -51 -235 134 -225 119 6 127 6 127 -12 0 -10
-49 -336 -110 -725 -60 -389 -110 -709 -110 -712 0 -3 -65 -6 -145 -9 -131 -3
-147 -5 -166 -24 -17 -18 -28 -61 -56 -230 l-36 -208 24 -19 c21 -17 35 -19
119 -13 52 3 325 10 605 16 281 6 529 13 553 16 73 9 76 15 102 248 22 195 22
208 6 224 -15 15 -36 17 -156 14 -104 -3 -140 0 -140 8 0 7 41 330 90 717 50
388 90 711 90 719 0 11 25 14 125 14 124 0 169 9 179 37 8 21 46 348 46 398 0
30 -5 45 -16 49 -20 8 -316 5 -779 -6z"/>
<path d="M16316 3258 c-18 -14 -14 -51 123 -1198 127 -1070 143 -1186 161
-1205 23 -22 -65 -18 1087 -51 657 -18 653 -18 653 26 0 47 -91 495 -102 503
-61 43 -258 111 -438 151 -106 23 -280 50 -286 43 -2 -1 5 -52 15 -112 l17
-110 -25 -3 c-14 -2 -85 -1 -156 3 l-131 7 -137 941 c-76 518 -142 952 -147
965 -6 12 -20 26 -33 31 -13 5 -149 12 -303 16 -234 6 -282 5 -298 -7z"/>
<path d="M9145 3229 c-777 -28 -1259 -51 -1279 -61 -13 -5 -28 -20 -33 -32
-22 -48 -106 -413 -100 -430 7 -18 21 -18 264 -11 l256 7 -6 -23 c-3 -13 -99
-444 -212 -958 -186 -841 -205 -935 -191 -949 17 -17 38 -17 351 -7 250 8 312
14 335 33 17 14 49 164 205 971 101 525 186 955 188 957 2 2 115 8 251 13 231
8 250 10 269 30 16 16 28 60 54 208 38 222 39 239 14 253 -21 11 -39 11 -366
-1z"/>
<path d="M17980 3205 c-10 -12 -5 -55 28 -227 25 -128 47 -217 56 -227 11 -11
52 -17 152 -23 76 -4 139 -10 142 -12 5 -5 292 -1415 292 -1436 0 -13 -20 -15
-144 -12 -136 4 -145 3 -155 -16 -8 -15 -2 -65 25 -208 40 -216 48 -242 80
-254 12 -5 143 -14 291 -20 147 -5 436 -17 641 -26 391 -16 402 -16 402 26 0
26 -89 390 -101 411 -18 34 -52 43 -189 48 l-135 6 -167 720 c-92 396 -167
725 -167 730 -1 6 48 9 132 7 107 -3 136 -1 145 11 10 11 1 58 -40 227 -46
184 -56 216 -78 231 -22 16 -80 21 -525 39 -614 25 -668 25 -685 5z"/>
<path d="M19313 3163 c-7 -2 -13 -16 -13 -31 0 -40 570 -2344 587 -2370 8 -13
24 -27 37 -32 28 -10 616 -41 645 -33 11 3 22 11 25 19 3 7 -13 80 -35 161
-22 82 -139 507 -260 946 -120 439 -219 805 -219 814 0 11 8 14 38 9 20 -3
116 -8 212 -12 182 -7 229 -16 251 -52 7 -11 137 -440 288 -953 244 -824 279
-934 302 -951 22 -17 64 -21 335 -37 174 -10 319 -14 332 -10 12 5 22 16 22
25 0 9 -147 472 -326 1028 -354 1101 -350 1090 -462 1203 -70 71 -130 114
-217 154 -132 62 -128 62 -972 104 -519 26 -550 27 -570 18z"/>
<path d="M7035 3140 c-77 -5 -315 -18 -530 -30 -481 -25 -489 -26 -520 -53
-20 -18 -95 -238 -405 -1202 -209 -649 -379 -1189 -378 -1200 3 -18 12 -20 76
-23 41 -2 189 4 330 12 220 14 261 19 282 35 22 16 60 138 308 977 155 527
285 960 287 962 2 2 105 9 229 15 233 11 256 9 256 -30 0 -7 -115 -432 -255
-943 -140 -511 -252 -936 -249 -944 3 -8 14 -16 24 -19 10 -3 157 2 327 10
325 16 343 19 363 66 6 12 121 472 256 1022 230 933 246 1005 242 1071 -8 120
-64 199 -178 253 -50 23 -68 26 -190 27 -74 1 -198 -2 -275 -6z"/>
<path d="M5610 3059 c-69 -5 -332 -23 -585 -39 -253 -17 -487 -35 -520 -41
-188 -33 -406 -181 -513 -346 -42 -66 -852 -2074 -852 -2113 0 -11 7 -23 16
-27 20 -7 618 35 647 46 12 5 30 17 39 27 9 11 82 197 163 414 81 217 150 398
154 402 7 8 509 43 516 36 3 -3 -58 -186 -136 -406 -78 -221 -139 -408 -136
-417 8 -20 65 -20 380 0 283 18 299 20 320 43 19 21 790 2386 785 2410 -4 21
-88 24 -278 11z m-540 -529 c0 -13 -199 -582 -209 -598 -7 -11 -497 -49 -507
-39 -5 5 185 528 206 567 20 38 70 50 275 64 110 7 208 14 218 15 9 0 17 -4
17 -9z"/>
<path d="M21502 3039 c-95 -18 -176 -79 -210 -158 -10 -22 -16 -65 -16 -111 0
-72 16 -122 332 -1094 183 -561 338 -1026 344 -1033 21 -26 89 -34 478 -58
217 -13 481 -30 585 -36 109 -7 195 -17 201 -23 7 -6 28 -56 49 -111 20 -55
42 -103 48 -108 7 -4 -71 -5 -173 -2 -102 3 -277 7 -390 10 -616 13 -766 19
-771 27 -4 6 -9 6 -13 -1 -4 -6 -28 -11 -53 -11 -34 0 -44 3 -40 14 4 10 0 12
-14 9 -10 -3 -19 -10 -19 -15 0 -7 -4 -7 -12 0 -8 6 -133 13 -323 16 -170 3
-380 8 -465 11 -159 5 -394 11 -815 20 -132 3 -307 7 -390 10 -82 3 -262 7
-400 10 -137 3 -324 7 -415 10 -91 3 -259 7 -375 10 -310 7 -632 15 -785 20
-74 2 -241 7 -370 10 -129 3 -302 7 -385 10 -417 13 -501 15 -635 16 -80 0
-149 4 -155 9 -5 4 -163 10 -350 14 -187 4 -383 9 -435 11 -52 2 -212 7 -355
10 -143 3 -314 8 -380 10 -66 3 -214 7 -330 10 -430 10 -625 15 -800 21 -182
6 -873 16 -910 14 -46 -3 -61 -2 -77 5 -10 4 -18 3 -18 -1 0 -5 -30 -8 -67 -7
-38 1 -666 2 -1398 3 -1209 0 -1686 -4 -1832 -15 -37 -3 -53 0 -53 8 0 9 -2 9
-8 1 -5 -8 -106 -14 -322 -18 -173 -4 -353 -9 -400 -11 -47 -2 -184 -7 -305
-10 -346 -8 -693 -18 -1045 -31 -91 -3 -174 -9 -185 -14 -11 -4 -159 -13 -330
-19 -170 -7 -341 -14 -380 -16 -38 -2 -146 -7 -240 -10 -93 -3 -197 -8 -230
-10 -33 -2 -125 -7 -205 -10 -199 -7 -813 -33 -935 -39 -55 -3 -158 -8 -230
-11 -71 -3 -170 -7 -220 -10 -49 -2 -170 -8 -268 -11 -98 -4 -180 -11 -184
-17 -3 -5 -8 -5 -13 2 -4 8 -15 9 -31 3 -13 -5 -107 -12 -209 -16 -102 -4
-216 -9 -255 -11 -38 -2 -137 -7 -219 -11 l-149 -6 7 26 c6 24 4 26 -27 26
-44 0 -70 -28 -61 -64 3 -15 9 -25 11 -22 3 3 15 -6 27 -19 21 -23 25 -24 232
-28 176 -3 217 -7 245 -22 27 -14 69 -18 214 -22 137 -4 186 -9 204 -20 18
-12 72 -17 220 -23 108 -5 219 -13 246 -19 28 -5 118 -10 200 -11 99 -1 162
-6 185 -15 31 -12 -6 -14 -291 -14 -281 -1 -328 -3 -339 -16 -8 -10 -9 -19 -4
-24 5 -5 392 -11 859 -14 1175 -7 15381 -11 15391 -4 5 2 87 8 183 12 96 4
182 11 190 15 9 5 122 14 251 20 253 11 721 36 860 45 47 3 117 7 155 10 39 3
126 7 195 10 69 4 188 10 265 15 77 5 282 16 455 25 173 9 324 20 335 25 31
12 826 49 1035 48 164 -1 185 1 188 16 3 13 -7 16 -60 17 -35 1 -76 2 -93 4
-16 1 -174 6 -350 9 -308 7 -455 13 -462 20 -2 2 38 6 89 10 168 12 416 73
447 110 9 11 -57 185 -285 752 -163 407 -305 749 -316 761 -11 12 -32 24 -47
27 -35 8 -722 56 -792 56 -42 0 -58 -4 -63 -15 -3 -9 29 -111 72 -227 60 -165
83 -215 103 -231 20 -14 52 -21 128 -27 56 -4 104 -10 106 -11 7 -7 176 -471
173 -474 -7 -7 -520 33 -527 41 -4 5 -119 326 -256 713 -183 522 -245 709
-238 720 14 22 79 23 298 8 l179 -12 42 -110 41 -110 74 -3 c171 -7 502 70
522 122 6 14 -189 504 -210 528 -8 9 -24 19 -36 22 -34 8 -1310 98 -1355 95
-9 -1 -36 -5 -60 -10z"/>
</g>
</svg>
